<?xml version="1.0" encoding="UTF-8"?>
<svg width="299px" height="487px" viewBox="0 0 299 487" version="1.1" xmlns="http://www.w3.org/2000/svg" xmlns:xlink="http://www.w3.org/1999/xlink">
    <title>编组</title>
    <defs>
        <linearGradient x1="44.4343028%" y1="0.958795939%" x2="58.5221517%" y2="101.872266%" id="linearGradient-1">
            <stop stop-color="#FFFFFF" offset="0%"></stop>
            <stop stop-color="#FEFEFE" offset="57.9652382%"></stop>
            <stop stop-color="#E0E0E0" offset="100%"></stop>
        </linearGradient>
        <linearGradient x1="50%" y1="0.7968%" x2="57.232866%" y2="99.2032%" id="linearGradient-2">
            <stop stop-color="#C48D4C" offset="0%"></stop>
            <stop stop-color="#925425" offset="100%"></stop>
        </linearGradient>
        <linearGradient x1="62.9215535%" y1="107.233602%" x2="41.6390527%" y2="12.1115308%" id="linearGradient-3">
            <stop stop-color="#E09C47" offset="0%"></stop>
            <stop stop-color="#F1C365" offset="100%"></stop>
        </linearGradient>
        <linearGradient x1="50%" y1="23.8278468%" x2="89.6712582%" y2="106.411704%" id="linearGradient-4">
            <stop stop-color="#F3C25A" offset="0%"></stop>
            <stop stop-color="#CF8837" offset="56.7745863%"></stop>
            <stop stop-color="#B87F42" offset="100%"></stop>
        </linearGradient>
        <polygon id="path-5" points="0 0 95.2687937 0 95.2687937 131.29003 0 131.29003"></polygon>
        <polygon id="path-7" points="0 0 76.3325495 0 76.3325495 27.1198796 0 27.1198796"></polygon>
        <polygon id="path-9" points="0 0 30.8763059 0 30.8763059 42.4455889 0 42.4455889"></polygon>
    </defs>
    <g id="页面-1" stroke="none" stroke-width="1" fill="none" fill-rule="evenodd">
        <g id="设计师介入-所有项目都亮滚，不用下钻交互" transform="translate(-397, 0)">
            <g id="编组" transform="translate(-58, -204)">
                <g transform="translate(479.0172, 204.1391)">
                    <g transform="translate(-24, 190)">
                        <path d="M176.1856,0 L110.182765,0 L110.182765,12.6901207 L75.2032782,12.6901207 L75.2032782,25.6406049 L50.9480413,25.6406049 L50.9480413,37.6824202 L39.6922918,37.6824202 L39.6922918,54.5696017 L26.2660337,54.5696017 L26.2660337,65.4710246 L12.9549776,65.4710246 L12.9549776,97.4358607 L0,97.4358607 L0,189.72173 L12.9549776,189.72173 L12.9549776,213.378364 L25.1179022,213.378364 L25.1179022,240.048109 L38.4362093,240.048109 L38.4362093,253.928803 L50.0758577,253.928803 C49.494402,262.652571 49.494402,267.014455 50.0758577,267.014455 C50.6573135,267.014455 55.0480649,267.014455 63.2481121,267.014455 L63.2481121,282.035369 L98.1547283,282.035369 L98.1547283,296 L192.17628,296 L192.17628,282.035369 L225.970329,282.035369 L225.970329,267.014455 L239.276778,267.014455 L239.276778,253.928803 L252.106103,253.928803 L252.106103,240.048109 L264.904503,240.048109 L264.904503,231.248646 L277.428999,231.248646 L277.428999,213.378364 L288.570719,213.378364 L288.570719,189.72173 L298.387097,189.72173 L298.387097,123.068426 L292.078462,123.068426 L292.078462,109.361658 L288.570719,109.361658 L288.570719,97.4358607 L274.475692,97.4358607 L274.475692,65.4710246 L263.049022,65.4710246 L263.049022,54.5696017 L252.106103,54.5696017 L252.106103,31.2286922 L237.328523,31.2286922 L237.328523,25.6406049 L214.146057,25.6406049 L214.146057,12.6901207 L176.1856,12.6901207 L176.1856,0 Z" id="路径" fill="url(#linearGradient-2)"></path>
                        <path d="M174.458109,9.5483871 L112.679455,9.5483871 L112.679455,21.4197903 L79.9386555,21.4197903 L79.9386555,33.5347594 L57.2357538,33.5347594 L57.2357538,44.7996834 L46.7003722,44.7996834 L46.7003722,60.5973694 L34.1333947,60.5973694 L34.1333947,70.7954746 L21.6742461,70.7954746 L21.6742461,100.698063 L9.5483871,100.698063 L9.5483871,187.030005 L21.6742461,187.030005 L21.6742461,209.160405 L33.0587435,209.160405 L33.0587435,234.109521 L45.524679,234.109521 L45.524679,247.094687 L56.4193899,247.094687 C55.8751474,255.255631 55.8751474,259.336103 56.4193899,259.336103 C56.9636325,259.336103 61.0733759,259.336103 68.74862,259.336103 L68.74862,273.387926 L101.421213,273.387926 L101.421213,286.451613 L189.425385,286.451613 L189.425385,273.387926 L221.056615,273.387926 L221.056615,259.336103 L233.511451,259.336103 L233.511451,247.094687 L245.519699,247.094687 L245.519699,234.109521 L257.499002,234.109521 L257.499002,225.877766 L269.22193,225.877766 L269.22193,209.160405 L279.65058,209.160405 L279.65058,187.030005 L288.83871,187.030005 L288.83871,124.676914 L282.933827,124.676914 L282.933827,111.854455 L279.65058,111.854455 L279.65058,100.698063 L266.457634,100.698063 L266.457634,70.7954746 L255.762272,70.7954746 L255.762272,60.5973694 L245.519699,60.5973694 L245.519699,38.762325 L231.687884,38.762325 L231.687884,33.5347594 L209.989096,33.5347594 L209.989096,21.4197903 L174.458109,21.4197903 L174.458109,9.5483871 Z" id="路径" fill="#F6DDA6"></path>
                        <path d="M174.458109,9.5483871 L121.959589,9.5483871 L121.959589,28.3254194 L89.2187898,28.3254194 L89.2187898,40.4403885 L66.515888,40.4403885 L66.515888,51.7053126 L55.9805065,51.7053126 L55.9805065,67.5029985 L43.4135289,67.5029985 L43.4135289,77.7011038 L30.9543804,77.7011038 L30.9543804,107.603692 L9.5483871,107.603692 L9.5483871,187.030005 L21.6742461,187.030005 L21.6742461,209.160405 L33.0587435,209.160405 L33.0587435,234.109521 L45.524679,234.109521 L45.524679,247.094687 L56.4193899,247.094687 C55.8751474,255.255631 55.8751474,259.336103 56.4193899,259.336103 C56.9636325,259.336103 61.0733759,259.336103 68.74862,259.336103 L68.74862,273.387926 L101.421213,273.387926 L101.421213,286.451613 L189.425385,286.451613 L189.425385,273.387926 L221.056615,273.387926 L221.056615,259.336103 L233.511451,259.336103 L233.511451,247.094687 L245.519699,247.094687 L245.519699,234.109521 L257.499002,234.109521 L257.499002,225.877766 L269.22193,225.877766 L269.22193,209.160405 L279.65058,209.160405 L279.65058,187.030005 L288.83871,187.030005 L288.83871,124.676914 L282.933827,124.676914 L282.933827,111.854455 L279.65058,111.854455 L279.65058,100.698063 L266.457634,100.698063 L266.457634,70.7954746 L255.762272,70.7954746 L255.762272,60.5973694 L245.519699,60.5973694 L245.519699,38.762325 L231.687884,38.762325 L231.687884,33.5347594 L209.989096,33.5347594 L209.989096,21.4197903 L174.458109,21.4197903 L174.458109,9.5483871 Z" id="路径" fill="url(#linearGradient-3)"></path>
                        <path d="M167.683443,46.0501529 L122.470709,46.0501529 L122.470709,54.7917528 L98.5093406,54.7917528 L98.5093406,63.7127043 L81.8942122,63.7127043 L81.8942122,72.0077185 L74.1838888,72.0077185 L74.1838888,83.6404671 L64.9867409,83.6404671 L64.9867409,91.149921 L55.8685076,91.149921 L55.8685076,113.168924 L46.9941925,113.168924 L46.9941925,176.74012 L55.8685076,176.74012 L55.8685076,193.036011 L64.2002569,193.036011 L64.2002569,211.407486 L73.3234571,211.407486 L73.3234571,220.969214 L81.296756,220.969214 C80.8984519,226.978588 80.8984519,229.983276 81.296756,229.983276 C81.6950602,229.983276 84.7027776,229.983276 90.3199083,229.983276 L90.3199083,240.330444 L114.231359,240.330444 L114.231359,249.949992 L178.63725,249.949992 L178.63725,240.330444 L201.78658,240.330444 L201.78658,229.983276 L210.901657,229.983276 L210.901657,220.969214 L219.689898,220.969214 L219.689898,211.407486 L228.456956,211.407486 L228.456956,205.345969 L237.036386,205.345969 L237.036386,193.036011 L244.668598,193.036011 L244.668598,176.74012 L251.392934,176.74012 L251.392934,130.825937 L247.071444,130.825937 L247.071444,121.384019 L244.668598,121.384019 L244.668598,113.168924 L235.013335,113.168924 L235.013335,91.149921 L227.185929,91.149921 L227.185929,83.6404671 L219.689898,83.6404671 L219.689898,67.5620628 L209.567079,67.5620628 L209.567079,63.7127043 L193.686811,63.7127043 L193.686811,54.7917528 L167.683443,54.7917528 L167.683443,46.0501529 Z" id="路径" fill="#CC8635"></path>
                        <path d="M177.806263,83.2247836 L132.593528,83.2247836 L132.593528,91.9663834 L108.63216,91.9663834 L108.63216,100.887335 L92.0170317,100.887335 L92.0170317,109.182349 L84.3067082,109.182349 L84.3067082,120.815098 L75.1095603,120.815098 L75.1095603,128.324552 L65.9913271,128.324552 L62.11191,128.324552 L81.296756,176.74012 L46.9941925,176.74012 L55.8685076,176.74012 L55.8685076,193.036011 L64.2002569,193.036011 L64.2002569,211.407486 L73.3234571,211.407486 L73.3234571,220.969214 L81.296756,220.969214 C80.8984519,226.978588 80.8984519,229.983276 81.296756,229.983276 C81.6950602,229.983276 84.7027776,229.983276 90.3199083,229.983276 L90.3199083,240.330444 L114.231359,240.330444 L114.231359,249.949992 L178.63725,249.949992 L178.63725,240.330444 L201.78658,240.330444 L201.78658,229.983276 L210.901657,229.983276 L210.901657,220.969214 L219.689898,220.969214 L219.689898,211.407486 L228.456956,211.407486 L228.456956,205.345969 L237.036386,205.345969 L237.036386,193.036011 L244.668598,193.036011 L244.668598,176.74012 L251.392934,176.74012 L251.392934,130.825937 L247.071444,130.825937 L247.071444,121.384019 L244.668598,121.384019 L244.668598,113.168924 L245.136154,150.343555 L245.136154,128.324552 L237.308749,128.324552 L237.308749,120.815098 L229.812718,120.815098 L229.812718,104.736693 L219.689898,104.736693 L219.689898,100.887335 L203.80963,100.887335 L203.80963,91.9663834 L177.806263,91.9663834 L177.806263,83.2247836 Z" id="路径" fill="#F7CB6F"></path>
                        <path d="M166.684413,54.9032981 L123.914576,54.9032981 L123.914576,62.9369632 L101.247868,62.9369632 L101.247868,71.1354552 L85.530475,71.1354552 L85.530475,78.7587012 L78.2367493,78.7587012 L78.2367493,89.4493766 L69.536534,89.4493766 L69.536534,96.3506806 L60.9109696,96.3506806 L60.9109696,116.586484 L52.5161442,116.586484 L52.5161442,175.009393 L60.9109696,175.009393 L60.9109696,189.985569 L68.7925448,189.985569 L68.7925448,206.869238 L77.4228078,206.869238 L77.4228078,215.656613 L84.9653,215.656613 C84.5885167,221.179321 84.5885167,223.940675 84.9653,223.940675 C85.3420833,223.940675 88.1872902,223.940675 93.5009208,223.940675 L93.5009208,233.449883 L116.120408,233.449883 L116.120408,242.290395 L177.046373,242.290395 L177.046373,233.449883 L198.944918,233.449883 L198.944918,223.940675 L207.567496,223.940675 L207.567496,215.656613 L215.880899,215.656613 L215.880899,206.869238 L224.174262,206.869238 L224.174262,201.29861 L232.290135,201.29861 L232.290135,189.985569 L239.50997,189.985569 L239.50997,175.009393 L245.870983,175.009393 L245.870983,132.813551 L241.782987,132.813551 L241.782987,124.136283 L239.50997,124.136283 L239.50997,116.586484 L230.376392,116.586484 L230.376392,96.3506806 L222.97191,96.3506806 L222.97191,89.4493766 L215.880899,89.4493766 L215.880899,74.673075 L206.305027,74.673075 L206.305027,71.1354552 L191.282789,71.1354552 L191.282789,62.9369632 L166.684413,62.9369632 L166.684413,54.9032981 Z" id="路径" fill="url(#linearGradient-4)"></path>
                        <g opacity="0.451436492" style="mix-blend-mode: multiply;" transform="translate(93.2769, 74.7184)">
                            <g>
                                <mask id="mask-6" fill="white">
                                    <use xlink:href="#path-5"></use>
                                </mask>
                                <g id="Clip-2"></g>
                                <path d="M52.7132679,131.29003 C39.2497313,131.29003 25.7881432,126.356554 15.5387471,116.487652 C5.51830606,106.84003 0,93.9921304 0,80.3098002 C0,66.7483455 5.42672401,54.0115738 15.2786151,44.3931959 C15.4101425,32.6487733 18.2599033,19.2228162 30.3808859,6.86036874 C31.1388736,6.08929983 32.1891444,5.64966382 33.3378172,5.62334415 C34.4913614,5.63406698 35.5445551,6.09124943 36.3181312,6.91203328 L42.4317206,13.399345 C43.1117661,14.120699 43.4615316,15.05456 43.4186634,16.0313122 C43.3738467,17.0285354 42.9305506,17.9516735 42.1676915,18.631111 C36.5061667,23.6679163 33.0328685,28.9766917 30.9128413,33.8682515 C40.4987547,29.6736756 51.1300675,28.3976589 61.3590038,30.0265542 C64.6803148,20.602162 71.2459688,9.45139423 84.1902157,0.633329294 C85.0125057,0.0718429567 85.9994485,-0.125067182 86.9649572,0.07671697 C87.9197488,0.273627109 88.7342446,0.835113446 89.25938,1.6588217 L94.6909754,10.2097907 C95.2180593,11.0373982 95.3953778,12.0521678 95.178114,12.9957767 C94.9725415,13.8857716 94.4405861,14.6353948 93.6796756,15.1052497 C86.8032272,19.3427169 78.6290414,26.3037828 74.4951833,33.860453 C80.0768174,36.3003841 85.3057631,39.7190171 89.8887631,44.1319488 L91.2157286,45.4079655 C91.9678706,46.1332186 91.990279,47.3312511 91.266391,48.0847736 L83.8511672,55.7954627 C83.1272793,56.5480103 81.9289183,56.5714056 81.1767763,55.8461524 L80.3574092,55.0575371 C65.9040069,41.1412542 43.15366,39.8418422 27.7181863,52.6556233 C19.2088493,59.7180686 14.4767849,69.6737283 14.4767849,80.3098002 C14.4767849,90.9458721 19.2088493,100.901532 27.7181863,107.963002 C34.915172,113.937568 43.7031524,116.844429 52.4979527,116.833707 L52.7132679,131.29003 Z" id="Fill-1" fill="#9E612F" mask="url(#mask-6)"></path>
                            </g>
                            <g transform="translate(15.5423, 104.1704)">
                                <mask id="mask-8" fill="white">
                                    <use xlink:href="#path-7"></use>
                                </mask>
                                <g id="Clip-4"></g>
                                <path d="M12.1794393,3.79294924 C27.6168615,16.6067303 50.3652599,15.3073184 64.8176879,1.39201027 L65.7140229,0.528335106 C66.4671392,-0.195943276 67.6645258,-0.172548012 68.3893881,0.579999647 L75.8046118,8.29166356 C76.5284998,9.04518602 76.5051172,10.2432185 75.7520009,10.9674969 L74.350016,12.3185734 C64.1025684,22.1845512 50.6370832,27.1190023 37.1745209,27.1199771 C23.7109842,27.1209519 10.2503704,22.1865008 0,12.3175986 L12.1794393,3.79294924 Z" id="Fill-3" fill="#9E612F" mask="url(#mask-8)"></path>
                            </g>
                            <path d="M43.6602842,101.077874 L24.0178815,81.4229274 C23.425521,80.8312221 23.425521,79.8729911 24.0178815,79.2822607 L43.7684289,59.5181366 C44.3607895,58.9274062 45.318504,58.9274062 45.9098902,59.5181366 L54.007108,67.6206964 C54.5984943,68.2114268 54.5984943,69.1716074 54.007108,69.7623378 L43.4215863,80.352594 L53.897989,90.8336723 C54.488401,91.4253775 54.488401,92.3845834 53.897989,92.9753138 L45.7997969,101.077874 C45.2093849,101.668604 44.2506962,101.668604 43.6602842,101.077874" id="Fill-5" fill="#9E612F"></path>
                            <g transform="translate(80.1605, 59.0523)">
                                <mask id="mask-10" fill="white">
                                    <use xlink:href="#path-9"></use>
                                </mask>
                                <g id="Clip-8"></g>
                                <path d="M8.54100108,42.00181 L0.442808988,33.8992502 C-0.147602996,33.3085198 -0.147602996,32.3502888 0.442808988,31.7585835 L11.0283308,21.1683273 L0.552902311,10.6862743 C-0.0384839494,10.0955438 -0.0384839494,9.13633801 0.552902311,8.54560759 L8.64914585,0.443047813 C9.24150638,-0.147682604 10.1992209,-0.147682604 10.7906071,0.443047813 L30.433984,20.0970192 C31.024396,20.6887244 31.024396,21.6469555 30.433984,22.2396355 L10.6805138,42.00181 C10.0901018,42.5935152 9.13141306,42.5935152 8.54100108,42.00181" id="Fill-7" fill="#9E612F" mask="url(#mask-10)"></path>
                            </g>
                            <path d="M64.2285424,91.4669041 L56.1303503,83.3643444 C55.5399384,82.7736139 55.5399384,81.8153829 56.1303503,81.2236777 L68.2415902,69.1059057 C68.8329765,68.5142005 69.7916652,68.5142005 70.3820772,69.1059057 L78.479295,77.2084655 C79.0706813,77.7991959 79.0706813,78.7584017 78.479295,79.3491322 L66.3690294,91.4669041 C65.7776432,92.0576345 64.8189544,92.0576345 64.2285424,91.4669041" id="Fill-9" fill="#9E612F"></path>
                        </g>
                    </g>
                    <polygon id="路径" fill="#992C2F" points="111 166 111 141.230939 124.726689 141.230939 124.726689 116.3849 138.623193 116.3849 138.623193 90.9675547 146.823828 90.9675547 148.587418 71.0080185 162.059385 71.0080185 162.059385 52.6469414 174.22948 52.6469414 174.22948 25.6094796 190.241592 25.6094796 190.241592 4.76811537e-15 257 0 257 20.7054362 257 32.1634816 245.810874 32.1634816 245.810874 46.9370658 234.048702 46.9370658 234.048702 61.9606965 224.198726 61.9606965 224.198726 76.5279897 209.083286 76.5279897 209.083286 93.02058 198.174938 93.02058 198.174938 96.7570155 198.174938 110.69544 183.610614 110.69544 183.610614 125.893978 166.883049 125.893978 166.883049 144.034381 154.388379 144.034381 154.388379 166"></polygon>
                    <path d="M176.894619,145.860881 L176.894619,155.317924 L183.982759,155.317924 L183.982759,182.416582 L176.45725,182.416582 L176.45725,189.860881 L73.2383337,189.860881 L73.2383337,182.416582 L65.9827592,182.416582 L65.9827592,155.317924 L73.2383337,155.317924 L73.2383337,145.860881 L176.894619,145.860881 Z M162.816826,155.860881 L87.2707203,155.860881 L87.2707203,161.019269 L81.9827592,161.019269 L81.9827592,175.800354 L87.2707203,175.800354 L87.2707203,179.860881 L162.498066,179.860881 L162.498066,175.800354 L167.982759,175.800354 L167.982759,161.019269 L162.816826,161.019269 L162.816826,155.860881 Z" id="形状结合" fill="#C5C3C3"></path>
                    <polygon id="路径备份-2" fill="#CD413A" transform="translate(73, 83) scale(-1, 1) translate(-73, -83)" points="-1.03739239e-12 166 3.97633315e-14 141.230939 13.726689 141.230939 13.726689 116.3849 27.6231928 116.3849 27.6231928 90.9675547 35.8238282 90.9675547 37.5874184 71.0080185 51.0593854 71.0080185 51.0593854 52.6469414 63.2294802 52.6469414 63.2294802 25.6094796 79.2415922 25.6094796 79.2415922 4.76811537e-15 146 0 146 20.7054362 146 32.1634816 134.810874 32.1634816 134.810874 46.9370658 123.048702 46.9370658 123.048702 61.9606965 113.198726 61.9606965 113.198726 76.5279897 98.0832863 76.5279897 98.0832863 93.02058 87.174938 93.02058 87.174938 96.7570155 87.174938 110.69544 72.6106137 110.69544 72.6106137 125.893978 55.883049 125.893978 55.883049 144.034381 43.388379 144.034381 43.388379 166"></polygon>
                </g>
            </g>
        </g>
    </g>
</svg>