<?xml version="1.0" encoding="UTF-8"?>
<svg width="370px" height="368px" viewBox="0 0 370 368" version="1.1" xmlns="http://www.w3.org/2000/svg" xmlns:xlink="http://www.w3.org/1999/xlink">
    <title>编组备份 10</title>
    <defs>
        <linearGradient x1="44.4343028%" y1="0.958795939%" x2="58.5221517%" y2="101.872266%" id="linearGradient-1">
            <stop stop-color="#FFFFFF" offset="0%"></stop>
            <stop stop-color="#FEFEFE" offset="57.9652382%"></stop>
            <stop stop-color="#E0E0E0" offset="100%"></stop>
        </linearGradient>
        <linearGradient x1="50%" y1="0.7968%" x2="57.232866%" y2="99.2032%" id="linearGradient-2">
            <stop stop-color="#C48D4C" offset="0%"></stop>
            <stop stop-color="#925425" offset="100%"></stop>
        </linearGradient>
        <linearGradient x1="62.9215535%" y1="107.233602%" x2="41.6390527%" y2="12.1115308%" id="linearGradient-3">
            <stop stop-color="#E09C47" offset="0%"></stop>
            <stop stop-color="#F1C365" offset="100%"></stop>
        </linearGradient>
        <linearGradient x1="50%" y1="23.8278468%" x2="89.6712582%" y2="106.411704%" id="linearGradient-4">
            <stop stop-color="#F3C25A" offset="0%"></stop>
            <stop stop-color="#CF8837" offset="56.7745863%"></stop>
            <stop stop-color="#B87F42" offset="100%"></stop>
        </linearGradient>
        <polygon id="path-5" points="0 0 118.347426 0 118.347426 104.525429 0 104.525429"></polygon>
        <polygon id="path-7" points="0 0 94.823923 0 94.823923 21.591259 0 21.591259"></polygon>
        <polygon id="path-9" points="0 0 38.3560155 0 38.3560155 33.7926907 0 33.7926907"></polygon>
    </defs>
    <g id="页面-1" stroke="none" stroke-width="1" fill="none" fill-rule="evenodd" opacity="0.184853831">
        <g id="第六页备份-7" transform="translate(-305, -651)">
            <g id="编组" transform="translate(-59, -159)">
                <g transform="translate(120, 356.4766)" id="编组备份-10">
                    <g transform="translate(-0, -0.4766)">
                        <g transform="translate(244, 420)">
                            <g id="编组" opacity="0.610534274" transform="translate(0, 34)">
                                <path d="M218.470144,0 L136.626629,0 L136.626629,15.7357496 L93.252065,15.7357496 L93.252065,31.7943501 L63.1755713,31.7943501 L63.1755713,46.7262011 L49.2184419,46.7262011 L49.2184419,67.6663061 L32.5698818,67.6663061 L32.5698818,81.1840705 L16.0641722,81.1840705 L16.0641722,120.820467 L0,120.820467 L0,235.254945 L16.0641722,235.254945 L16.0641722,264.589172 L31.1461987,264.589172 L31.1461987,297.659655 L47.6608995,297.659655 L47.6608995,314.871716 L62.0940636,314.871716 C61.3730585,325.689188 61.3730585,331.097924 62.0940636,331.097924 C62.8150687,331.097924 68.2596005,331.097924 78.427659,331.097924 L78.427659,349.723858 L121.711863,349.723858 L121.711863,367.04 L238.298587,367.04 L238.298587,349.723858 L280.203208,349.723858 L280.203208,331.097924 L296.703204,331.097924 L296.703204,314.871716 L312.611567,314.871716 L312.611567,297.659655 L328.481583,297.659655 L328.481583,286.748321 L344.011958,286.748321 L344.011958,264.589172 L357.827692,264.589172 L357.827692,235.254945 L370,235.254945 L370,152.604848 L362.177293,152.604848 L362.177293,135.608456 L357.827692,135.608456 L357.827692,120.820467 L340.349858,120.820467 L340.349858,81.1840705 L326.180787,81.1840705 L326.180787,67.6663061 L312.611567,67.6663061 L312.611567,38.7235784 L294.287368,38.7235784 L294.287368,31.7943501 L265.54111,31.7943501 L265.54111,15.7357496 L218.470144,15.7357496 L218.470144,0 Z" id="路径" fill="url(#linearGradient-2)"></path>
                                <path d="M216.328055,11.84 L139.722524,11.84 L139.722524,26.56054 L99.1239329,26.56054 L99.1239329,41.5831017 L70.9723347,41.5831017 L70.9723347,55.5516075 L57.9084616,55.5516075 L57.9084616,75.140738 L42.3254094,75.140738 L42.3254094,87.7863886 L26.8760652,87.7863886 L26.8760652,124.865598 L11.84,124.865598 L11.84,231.917207 L26.8760652,231.917207 L26.8760652,259.358903 L40.992842,259.358903 L40.992842,290.295806 L56.4506019,290.295806 L56.4506019,306.397411 L69.9600435,306.397411 C69.2851827,316.516982 69.2851827,321.576768 69.9600435,321.576768 C70.6349043,321.576768 75.7309861,321.576768 85.2482888,321.576768 L85.2482888,339.001028 L125.762304,339.001028 L125.762304,355.2 L234.887477,355.2 L234.887477,339.001028 L274.110203,339.001028 L274.110203,321.576768 L289.554199,321.576768 L289.554199,306.397411 L304.444427,306.397411 L304.444427,290.295806 L319.298762,290.295806 L319.298762,280.08843 L333.835193,280.08843 L333.835193,259.358903 L346.76672,259.358903 L346.76672,231.917207 L358.16,231.917207 L358.16,154.599374 L350.837946,154.599374 L350.837946,138.699524 L346.76672,138.699524 L346.76672,124.865598 L330.407467,124.865598 L330.407467,87.7863886 L317.145217,87.7863886 L317.145217,75.140738 L304.444427,75.140738 L304.444427,48.065283 L287.292977,48.065283 L287.292977,41.5831017 L260.386479,41.5831017 L260.386479,26.56054 L216.328055,26.56054 L216.328055,11.84 Z" id="路径" fill="#F6DDA6"></path>
                                <path d="M216.328055,11.84 L151.229891,11.84 L151.229891,35.1235201 L110.631299,35.1235201 L110.631299,50.1460818 L82.4797012,50.1460818 L82.4797012,64.1145876 L69.4158281,64.1145876 L69.4158281,83.7037181 L53.8327759,83.7037181 L53.8327759,96.3493687 L38.3834316,96.3493687 L38.3834316,133.428579 L11.84,133.428579 L11.84,231.917207 L26.8760652,231.917207 L26.8760652,259.358903 L40.992842,259.358903 L40.992842,290.295806 L56.4506019,290.295806 L56.4506019,306.397411 L69.9600435,306.397411 C69.2851827,316.516982 69.2851827,321.576768 69.9600435,321.576768 C70.6349043,321.576768 75.7309861,321.576768 85.2482888,321.576768 L85.2482888,339.001028 L125.762304,339.001028 L125.762304,355.2 L234.887477,355.2 L234.887477,339.001028 L274.110203,339.001028 L274.110203,321.576768 L289.554199,321.576768 L289.554199,306.397411 L304.444427,306.397411 L304.444427,290.295806 L319.298762,290.295806 L319.298762,280.08843 L333.835193,280.08843 L333.835193,259.358903 L346.76672,259.358903 L346.76672,231.917207 L358.16,231.917207 L358.16,154.599374 L350.837946,154.599374 L350.837946,138.699524 L346.76672,138.699524 L346.76672,124.865598 L330.407467,124.865598 L330.407467,87.7863886 L317.145217,87.7863886 L317.145217,75.140738 L304.444427,75.140738 L304.444427,48.065283 L287.292977,48.065283 L287.292977,41.5831017 L260.386479,41.5831017 L260.386479,26.56054 L216.328055,26.56054 L216.328055,11.84 Z" id="路径" fill="url(#linearGradient-3)"></path>
                                <path d="M207.927469,57.1021896 L151.863679,57.1021896 L151.863679,67.9417734 L122.151582,67.9417734 L122.151582,79.0037533 L101.548823,79.0037533 L101.548823,89.2895709 L91.9880221,89.2895709 L91.9880221,103.714179 L80.5835587,103.714179 L80.5835587,113.025902 L69.2769495,113.025902 L69.2769495,140.329466 L58.2727988,140.329466 L58.2727988,219.157748 L69.2769495,219.157748 L69.2769495,239.364654 L79.6083186,239.364654 L79.6083186,262.145283 L90.9210869,262.145283 L90.9210869,274.001825 L100.807977,274.001825 C100.31408,281.45345 100.31408,285.179262 100.807977,285.179262 C101.301875,285.179262 105.031444,285.179262 111.996686,285.179262 L111.996686,298.009751 L141.646886,298.009751 L141.646886,309.93799 L221.51019,309.93799 L221.51019,298.009751 L250.215359,298.009751 L250.215359,285.179262 L261.518054,285.179262 L261.518054,274.001825 L272.415474,274.001825 L272.415474,262.145283 L283.286625,262.145283 L283.286625,254.629002 L293.925118,254.629002 L293.925118,239.364654 L303.389062,239.364654 L303.389062,219.157748 L311.727239,219.157748 L311.727239,162.224162 L306.36859,162.224162 L306.36859,150.516184 L303.389062,150.516184 L303.389062,140.329466 L291.416535,140.329466 L291.416535,113.025902 L281.710552,113.025902 L281.710552,103.714179 L272.415474,103.714179 L272.415474,83.7769578 L259.863178,83.7769578 L259.863178,79.0037533 L240.171646,79.0037533 L240.171646,67.9417734 L207.927469,67.9417734 L207.927469,57.1021896 Z" id="路径" fill="#CC8635"></path>
                                <path d="M220.479766,103.198732 L164.415975,103.198732 L164.415975,114.038315 L134.703878,114.038315 L134.703878,125.100295 L114.101119,125.100295 L114.101119,135.386113 L104.540318,135.386113 L104.540318,149.810721 L93.1358548,149.810721 L93.1358548,159.122444 L81.8292456,159.122444 L77.0187684,159.122444 L100.807977,219.157748 L58.2727988,219.157748 L69.2769495,219.157748 L69.2769495,239.364654 L79.6083186,239.364654 L79.6083186,262.145283 L90.9210869,262.145283 L90.9210869,274.001825 L100.807977,274.001825 C100.31408,281.45345 100.31408,285.179262 100.807977,285.179262 C101.301875,285.179262 105.031444,285.179262 111.996686,285.179262 L111.996686,298.009751 L141.646886,298.009751 L141.646886,309.93799 L221.51019,309.93799 L221.51019,298.009751 L250.215359,298.009751 L250.215359,285.179262 L261.518054,285.179262 L261.518054,274.001825 L272.415474,274.001825 L272.415474,262.145283 L283.286625,262.145283 L283.286625,254.629002 L293.925118,254.629002 L293.925118,239.364654 L303.389062,239.364654 L303.389062,219.157748 L311.727239,219.157748 L311.727239,162.224162 L306.36859,162.224162 L306.36859,150.516184 L303.389062,150.516184 L303.389062,140.329466 L303.968832,186.426008 L303.968832,159.122444 L294.262848,159.122444 L294.262848,149.810721 L284.96777,149.810721 L284.96777,129.8735 L272.415474,129.8735 L272.415474,125.100295 L252.723942,125.100295 L252.723942,114.038315 L220.479766,114.038315 L220.479766,103.198732 Z" id="路径" fill="#F7CB6F"></path>
                                <path d="M206.688672,68.0800896 L153.654074,68.0800896 L153.654074,78.0418344 L125.547357,78.0418344 L125.547357,88.2079645 L106.057789,88.2079645 L106.057789,97.6607895 L97.0135691,97.6607895 L97.0135691,110.917227 L86.2253022,110.917227 L86.2253022,119.474844 L75.5296023,119.474844 L75.5296023,144.56724 L65.1200188,144.56724 L65.1200188,217.011648 L75.5296023,217.011648 L75.5296023,235.582106 L85.3027555,235.582106 L85.3027555,256.517855 L96.0042816,256.517855 L96.0042816,267.4142 L105.356972,267.4142 C104.889761,274.262358 104.889761,277.686437 105.356972,277.686437 C105.824183,277.686437 109.35224,277.686437 115.941142,277.686437 L115.941142,289.477854 L143.989306,289.477854 L143.989306,300.44009 L219.537503,300.44009 L219.537503,289.477854 L246.691698,289.477854 L246.691698,277.686437 L257.383695,277.686437 L257.383695,267.4142 L267.692314,267.4142 L267.692314,256.517855 L277.976085,256.517855 L277.976085,249.610277 L288.039768,249.610277 L288.039768,235.582106 L296.992363,235.582106 L296.992363,217.011648 L304.880019,217.011648 L304.880019,164.688804 L299.810904,164.688804 L299.810904,153.928991 L296.992363,153.928991 L296.992363,144.56724 L285.666726,144.56724 L285.666726,119.474844 L276.485169,119.474844 L276.485169,110.917227 L267.692314,110.917227 L267.692314,92.5946131 L255.818233,92.5946131 L255.818233,88.2079645 L237.190658,88.2079645 L237.190658,78.0418344 L206.688672,78.0418344 L206.688672,68.0800896 Z" id="路径" fill="url(#linearGradient-4)"></path>
                                <g opacity="0.451436492" style="mix-blend-mode: multiply;" transform="translate(115.873, 59.4864)">
                                    <g>
                                        <mask id="mask-6" fill="white">
                                            <use xlink:href="#path-5"></use>
                                        </mask>
                                        <g id="Clip-2"></g>
                                        <path d="M65.4829282,104.525429 C48.7578828,104.525429 32.0352579,100.597684 19.3029706,92.7406425 C6.85510222,85.0597712 0,74.8310267 0,63.9379571 C0,53.1411215 6.74133463,43.0008502 18.9798222,35.3432613 C19.1432118,25.9930402 22.6833202,15.3040799 37.7405813,5.4618236 C38.6821896,4.84794372 39.986886,4.49793129 41.413822,4.47697711 C42.8468095,4.485514 44.1551367,4.84949588 45.1161097,5.50295588 L52.7107012,10.6677734 C53.5554861,11.2420731 53.9899814,11.9855585 53.9367285,12.7631914 C53.881055,13.5571221 53.3303715,14.2920705 52.3827117,14.8329988 C45.3496963,18.8430082 41.0350001,23.069544 38.4014015,26.9639173 C50.309479,23.6244417 63.5162013,22.608552 76.2230725,23.905383 C80.3489629,16.4022341 88.5051306,7.52464627 104.58509,0.504219673 C105.606577,0.0571971524 106.832605,-0.0995711622 108.032005,0.0610775562 C109.218093,0.217845871 110.229898,0.664868391 110.882247,1.32065664 L117.629633,8.12843711 C118.284401,8.78732968 118.504675,9.59522976 118.234779,10.3464759 C117.979408,11.0550377 117.318587,11.6518438 116.373348,12.0259147 C107.831097,15.3995378 97.6767346,20.9415305 92.5414594,26.9577086 C99.4752307,28.9002388 105.970876,31.621954 111.664096,35.1352717 L113.312516,36.1511614 C114.246862,36.7285655 114.274699,37.6823687 113.375451,38.2822792 L104.163908,44.421078 C103.26466,45.0202124 101.775999,45.0388383 100.841652,44.4614342 L99.8237952,43.8335849 C81.8690915,32.7542559 53.6075287,31.7197402 34.4328492,41.9213219 C23.8621461,47.544027 17.9837507,55.4701399 17.9837507,63.9379571 C17.9837507,72.4057743 23.8621461,80.3318872 34.4328492,85.9538162 C43.3732871,90.7104152 54.2901342,93.0246881 65.2154534,93.0161512 L65.4829282,104.525429 Z" id="Fill-1" fill="#9E612F" mask="url(#mask-6)"></path>
                                    </g>
                                    <g transform="translate(19.3073, 82.9344)">
                                        <mask id="mask-8" fill="white">
                                            <use xlink:href="#path-7"></use>
                                        </mask>
                                        <g id="Clip-4"></g>
                                        <path d="M15.1298787,3.01972394 C34.3069787,13.2213056 62.566121,12.1867899 80.5196143,1.10823701 L81.6330843,0.420629453 C82.5686412,-0.155998555 84.0560918,-0.137372617 84.9565502,0.461761734 L94.1680938,6.60133667 C95.0673418,7.2012471 95.0382948,8.15505036 94.1027379,8.73167837 L92.3611256,9.80732631 C79.6312589,17.6620397 62.9037928,21.5905606 46.1799577,21.5913366 C29.4549122,21.5921127 12.7334976,17.6635919 0,9.80655023 L15.1298787,3.01972394 Z" id="Fill-3" fill="#9E612F" mask="url(#mask-8)"></path>
                                    </g>
                                    <path d="M54.2368813,80.4722802 L29.8361546,64.8241637 C29.1002962,64.3530827 29.1002962,63.5901953 29.8361546,63.1198904 L54.3712239,47.3848528 C55.1070823,46.9145479 56.2968008,46.9145479 57.0314489,47.3848528 L67.090198,53.8356362 C67.8248461,54.3059411 67.8248461,55.0703807 67.090198,55.5406856 L53.9403594,63.972027 L66.9546451,72.3164474 C67.6880829,72.7875284 67.6880829,73.5511919 66.9546451,74.0214969 L56.8946858,80.4722802 C56.1612479,80.9425851 54.9703191,80.9425851 54.2368813,80.4722802" id="Fill-5" fill="#9E612F"></path>
                                    <g transform="translate(99.5792, 47.014)">
                                        <mask id="mask-10" fill="white">
                                            <use xlink:href="#path-9"></use>
                                        </mask>
                                        <g id="Clip-8"></g>
                                        <path d="M10.6100377,33.43938 L0.550078382,26.9885966 C-0.183359461,26.5182917 -0.183359461,25.7554043 0.550078382,25.2843233 L13.6999169,16.8529819 L0.686841545,8.50778539 C-0.0478065921,8.03748044 -0.0478065921,7.27381697 0.686841545,6.80351203 L10.7443803,0.352728708 C11.4802387,-0.117576236 12.6699572,-0.117576236 13.4046053,0.352728708 L37.8065423,16.0000691 C38.5399801,16.4711501 38.5399801,17.2340375 37.8065423,17.7058946 L13.2678422,33.43938 C12.5344043,33.910461 11.3434756,33.910461 10.6100377,33.43938" id="Fill-7" fill="#9E612F" mask="url(#mask-10)"></path>
                                    </g>
                                    <path d="M79.7877499,72.8205895 L69.7277905,66.3698062 C68.9943527,65.8995012 68.9943527,65.1366138 69.7277905,64.6655328 L84.7729487,55.0180728 C85.5075968,54.5469918 86.6985256,54.5469918 87.4319634,55.0180728 L97.4907124,61.4688561 C98.2253606,61.9391611 98.2253606,62.7028245 97.4907124,63.1731295 L82.4467646,72.8205895 C81.7121165,73.2908944 80.5211877,73.2908944 79.7877499,72.8205895" id="Fill-9" fill="#9E612F"></path>
                                </g>
                            </g>
                        </g>
                    </g>
                </g>
            </g>
        </g>
    </g>
</svg>