<?xml version="1.0" encoding="UTF-8"?>
<svg width="100%" height="100%" viewBox="0 0 767 1299" version="1.1" xmlns="http://www.w3.org/2000/svg" xmlns:xlink="http://www.w3.org/1999/xlink" preserveAspectRatio="none">
    <title>编组</title>
    <defs>
        <linearGradient x1="44.4343028%" y1="0.958795939%" x2="58.5221517%" y2="101.872266%" id="linearGradient-1">
            <stop stop-color="#FFFFFF" offset="0%"></stop>
            <stop stop-color="#FEFEFE" offset="57.9652382%"></stop>
            <stop stop-color="#E0E0E0" offset="100%"></stop>
        </linearGradient>
        <linearGradient x1="-7.06027498%" y1="62.7356539%" x2="12.8862956%" y2="58.5210746%" id="linearGradient-2">
            <stop stop-color="#EFEFEF" offset="0%"></stop>
            <stop stop-color="#FFFFFF" offset="100%"></stop>
        </linearGradient>
        <path d="M-36.7596949,-125.268488 L-39.3120793,-111.256891 L-20.9470699,-107.226925 C106.684394,25.7065988 173.060953,92.5155584 178.182607,93.1999539 C183.286613,93.8819911 261.69688,54.8820229 413.413408,-23.7999507 L430.981064,-19.1610966 L433.853579,-34.6437956 L-36.7596949,-125.268488 Z" id="path-3"></path>
        <filter x="-3.5%" y="-5.7%" width="107.0%" height="114.9%" filterUnits="objectBoundingBox" id="filter-4">
            <feMorphology radius="2.12632619" operator="dilate" in="SourceAlpha" result="shadowSpreadOuter1"></feMorphology>
            <feOffset dx="0" dy="4" in="shadowSpreadOuter1" result="shadowOffsetOuter1"></feOffset>
            <feGaussianBlur stdDeviation="4" in="shadowOffsetOuter1" result="shadowBlurOuter1"></feGaussianBlur>
            <feComposite in="shadowBlurOuter1" in2="SourceAlpha" operator="out" result="shadowBlurOuter1"></feComposite>
            <feColorMatrix values="0 0 0 0 0   0 0 0 0 0   0 0 0 0 0  0 0 0 0.25 0" type="matrix" in="shadowBlurOuter1"></feColorMatrix>
        </filter>
        <polygon id="path-5" points="0 0 65.6386654 0 65.6386654 89.9997995 0 89.9997995"></polygon>
        <polygon id="path-7" points="-1.19239962e-15 0 52.5918979 0 52.5918979 18.5907774 -1.19239962e-15 18.5907774"></polygon>
    </defs>
    <g id="页面-1" stroke="none" stroke-width="1" fill="none" fill-rule="evenodd">
        <g id="第六页备份-7" transform="translate(46, 11)">
            <g id="编组" transform="translate(-59, -159)">
                <g id="编组备份-6" transform="translate(242.5, -75)" fill="#1864D0" stroke="#000000" stroke-width="4.25265238">
                    <g id="编组" transform="translate(-2, 432) rotate(-22) translate(2, -432)translate(-246, 261)">
                        <polygon id="矩形-4" transform="translate(298.406, 247.0416) rotate(11) translate(-298.406, -247.0416)" points="58.9267301 116.209185 537.905953 116.17619 537.885176 377.873966 58.9059532 377.906961"></polygon>
                    </g>
                </g>
                <g transform="translate(120, 356.4766)">
                    <g transform="translate(-0, -0.4766)" id="路径备份" stroke-width="4.44430693">
                        <path d="M820.180479,235.740478 L823.45347,235.740478 L823.45347,232.777847 L843.952927,232.777847 L843.952926,241.152813 L850.039559,241.152813 L850.039558,253.200178 L854.222153,253.200177 L854.222153,871.185535 L851.025974,871.185535 L851.025975,882.668811 L843.952926,882.66881 L843.952927,889.887201 L-164.064217,889.887201 L-164.064216,886.984758 L-167.723573,886.984758 L-167.723574,892.222153 L-186.745643,892.222153 L-186.745643,882.66881 L-193.483608,882.668811 L-193.483607,871.185535 L-198.222153,871.185535 L-198.222153,253.200177 L-192.870623,253.200178 L-192.870623,241.424562 L-186.122716,241.424563 L-186.122717,232.777847 L820.180479,232.777847 Z" stroke="#000000" fill="url(#linearGradient-2)" transform="translate(328, 562.5) rotate(90) translate(-328, -562.5)"></path>
                        <path d="M793.199994,262.796261 L795.854422,262.796261 L795.854423,260.06883 L815.067016,260.06883 L815.067016,267.778914 L820.665788,267.778913 L820.665788,278.869846 L824.513137,278.869846 L824.513137,848.146601 L821.57314,848.146601 L821.573141,858.718228 L815.067016,858.718227 L815.067016,865.363555 L-137.09305,865.363555 L-137.093049,862.691535 L-140.102876,862.691535 L-140.102877,867.513137 L-157.9565,867.513137 L-157.956499,858.718227 L-164.154398,858.718228 L-164.154398,848.146601 L-168.513137,848.146601 L-168.513137,278.869846 L-163.590546,278.869846 L-163.590546,268.029089 L-157.383502,268.029089 L-157.383503,260.06883 L793.199994,260.06883 Z" stroke="#EAB258" opacity="0.489793347" transform="translate(328, 563.791) rotate(90) translate(-328, -563.791)"></path>
                    </g>
                    <g id="路径-3" transform="translate(197.2707, -16.0299) rotate(-22) translate(-197.2707, 16.0299)">
                        <use fill="black" fill-opacity="1" filter="url(#filter-4)" xlink:href="#path-3"></use>
                        <use stroke="#000000" stroke-width="4.25265238" fill="#1677FF" fill-rule="evenodd" xlink:href="#path-3"></use>
                    </g>
                    <g id="编组备份" opacity="0.411491935" transform="translate(424.2568, -32.1045) rotate(-8) translate(-424.2568, 32.1045)translate(166.7568, -77.1045)">
                        <g id="编组">
                            <mask id="mask-6" fill="white">
                                <use xlink:href="#path-5"></use>
                            </mask>
                            <g id="Clip-2"></g>
                            <path d="M36.3185931,89.9997995 C27.0424331,89.9997995 17.7676156,86.6178833 10.7059466,79.8527145 C3.80202405,73.2392341 0,64.4319518 0,55.052664 C0,45.7562368 3.73892549,37.0251329 10.5267198,30.4316994 C10.6173401,22.3808544 12.5807795,13.1773113 20.9319414,4.70280805 C21.4541827,4.17423747 22.1778024,3.87286537 22.9692195,3.85482314 C23.7639929,3.86217368 24.4896263,4.17557394 25.0226078,4.73822429 L29.2347725,9.18530041 C29.7033129,9.67979121 29.9442957,10.3199563 29.9147602,10.9895236 C29.8838822,11.6731238 29.5784583,12.3059383 29.0528607,12.7716952 C25.1521613,16.2244439 22.7591147,19.8636289 21.2984501,23.2168112 C27.9029901,20.341414 35.2277935,19.4666998 42.275366,20.5833135 C44.5636958,14.1228579 49.0873258,6.47896558 58.0057035,0.434149565 C58.5722481,0.0492486116 59.2522358,-0.0857340144 59.9174557,0.0525897657 C60.5752918,0.187572392 61.1364663,0.572473345 61.4982761,1.13712839 L65.2405579,6.99884916 C65.6037103,7.56617713 65.7258798,8.26180541 65.5761885,8.90865285 C65.4345524,9.51874759 65.0680437,10.0326171 64.5437887,10.3547043 C59.8060263,13.2595037 54.174144,18.03134 51.3259822,23.2114654 C55.1716383,24.8840471 58.7742977,27.2275326 61.9319109,30.2526135 L62.8461688,31.1273277 C63.3643825,31.6244914 63.3798215,32.4457471 62.8810744,32.9622895 L57.7721046,38.2479953 C57.2733574,38.7638695 56.447706,38.779907 55.9294923,38.2827433 L55.3649615,37.7421446 C45.4068,28.2024814 29.7321772,27.3117297 19.0973842,36.0956238 C13.234588,40.9369561 9.97427179,47.7615975 9.97427179,55.052664 C9.97427179,62.3437305 13.234588,69.1683719 19.0973842,74.009036 C24.0559915,78.1046227 30.1107685,80.097287 36.1702444,80.0899364 L36.3185931,89.9997995 Z" id="Fill-1" fill="#FFFFFF" mask="url(#mask-6)"></path>
                        </g>
                        <g id="编组" transform="translate(10.7084, 71.4092)">
                            <mask id="mask-8" fill="white">
                                <use xlink:href="#path-7"></use>
                            </mask>
                            <g id="Clip-4"></g>
                            <path d="M8.39143763,2.60008068 C19.0275731,11.3839748 34.7008534,10.4932232 44.6583436,0.95422817 L45.275904,0.362175662 C45.794789,-0.134319838 46.6197692,-0.118282298 47.1191876,0.397591896 L52.2281574,5.68396593 C52.7269046,6.20050835 52.7107943,7.02176403 52.1919093,7.51825953 L51.2259643,8.44442745 C44.1656378,15.2075916 34.8881353,18.590176 25.6126465,18.5908442 C16.3364865,18.5915125 7.06234023,15.2089281 -1.19239962e-15,8.44375922 L8.39143763,2.60008068 Z" id="Fill-3" fill="#FFFFFF" mask="url(#mask-8)"></path>
                        </g>
                        <path d="M30.081233,69.2892548 L16.5479338,55.8157168 C16.1398069,55.4101007 16.1398069,54.7532298 16.5479338,54.3482819 L30.1557431,40.799902 C30.5638699,40.3949541 31.2237198,40.3949541 31.6311754,40.799902 L37.2100281,46.3542366 C37.6174838,46.7591845 37.6174838,47.4173918 37.2100281,47.8223397 L29.916774,55.0819993 L37.1348469,62.2668171 C37.5416312,62.6724333 37.5416312,63.3299724 37.1348469,63.7349203 L31.5553229,69.2892548 C31.1485385,69.6942027 30.4880174,69.6942027 30.081233,69.2892548" id="Fill-5" fill="#FFFFFF"></path>
                        <path d="M61.1139119,69.27295 L55.5343879,63.7186154 C55.1276035,63.3136675 55.1276035,62.6567966 55.5343879,62.2511805 L62.827642,54.9915209 L55.6102404,47.8060349 C55.2027848,47.401087 55.2027848,46.7435479 55.6102404,46.3386 L61.1884219,40.7842654 C61.5965488,40.3793175 62.2563986,40.3793175 62.6638542,40.7842654 L76.1978247,54.2571352 C76.6046091,54.6627513 76.6046091,55.3196222 76.1978247,55.7259066 L62.5880017,69.27295 C62.1812174,69.6785661 61.5206962,69.6785661 61.1139119,69.27295" id="Fill-7" fill="#FFFFFF"></path>
                        <path d="M44.2524319,62.7008999 L38.6729079,57.1465653 C38.2661236,56.7416174 38.2661236,56.0847465 38.6729079,55.6791304 L47.0173573,47.3723531 C47.4248129,46.966737 48.085334,46.966737 48.4921183,47.3723531 L54.0709711,52.9266877 C54.4784267,53.3316355 54.4784267,53.9891747 54.0709711,54.3941225 L45.727193,62.7008999 C45.3197374,63.1058478 44.6592163,63.1058478 44.2524319,62.7008999" id="Fill-9" fill="#FFFFFF"></path>
                    </g>
                </g>
            </g>
        </g>
    </g>
</svg>