<?xml version="1.0" encoding="UTF-8"?>
<svg width="58px" height="60px" viewBox="0 0 58 60" version="1.1" xmlns="http://www.w3.org/2000/svg" xmlns:xlink="http://www.w3.org/1999/xlink">
    <title>路径</title>
    <defs>
        <linearGradient x1="44.4343028%" y1="0.958795939%" x2="58.5221517%" y2="101.872266%" id="linearGradient-1">
            <stop stop-color="#FFFFFF" offset="0%"></stop>
            <stop stop-color="#FEFEFE" offset="57.9652382%"></stop>
            <stop stop-color="#E0E0E0" offset="100%"></stop>
        </linearGradient>
    </defs>
    <g id="页面-1" stroke="none" stroke-width="1" fill="none" fill-rule="evenodd">
        <g id="第一页" transform="translate(-621, -886)" fill="#FFFFFF" fill-rule="nonzero">
            <path d="M641.665487,946 C640.338531,946 639.262821,944.937788 639.262821,943.627482 L639.262821,921.966396 C639.262821,921.254641 639.587181,920.578473 640.151807,920.127695 L659.613399,904.552116 C660.643923,903.761185 662.125617,903.928348 662.948913,904.928425 C663.77221,905.928503 663.635322,907.394906 662.640758,908.229519 L644.068153,923.093342 L644.068153,936.498067 L649.90663,928.811109 C650.615416,927.873965 651.924869,927.589263 652.970029,928.146805 L662.652771,933.271443 L674.137513,892.559039 C674.365767,891.764246 673.897247,891.266017 673.681007,891.088078 C673.464767,890.91014 672.900141,890.542399 672.143301,890.886415 L628.594986,911.064677 L634.24125,914.267576 C635.394529,914.920019 635.790969,916.367254 635.130236,917.506063 C634.469503,918.644871 633.003877,919.036337 631.850598,918.383894 L622.203895,912.915241 C621.424986,912.475107 620.961123,911.641469 621.002562,910.75625 C621.038602,909.866556 621.567188,909.083625 622.384095,908.704022 L670.101035,886.592158 C672.335514,885.560112 674.894353,885.892265 676.780446,887.469989 C678.656001,889.016145 679.432928,891.508313 678.762645,893.828336 L666.460997,937.399623 C666.264593,938.092564 665.759882,938.659794 665.089247,938.941296 C664.418612,939.222797 663.654757,939.188051 663.013171,938.846859 L652.513522,933.283305 L643.587619,945.050993 C643.1191,945.655985 642.3983,946 641.665487,946 Z" id="路径"></path>
        </g>
    </g>
</svg>