<?xml version="1.0" encoding="UTF-8"?>
<svg width="636px" height="75px" viewBox="0 0 636 75" version="1.1" xmlns="http://www.w3.org/2000/svg" xmlns:xlink="http://www.w3.org/1999/xlink">
    <title>形状结合</title>
    <defs>
        <linearGradient x1="44.4343028%" y1="0.958795939%" x2="58.5221517%" y2="101.872266%" id="linearGradient-1">
            <stop stop-color="#FFFFFF" offset="0%"></stop>
            <stop stop-color="#FEFEFE" offset="57.9652382%"></stop>
            <stop stop-color="#E0E0E0" offset="100%"></stop>
        </linearGradient>
    </defs>
    <g id="页面-1" stroke="none" stroke-width="1" fill="none" fill-rule="evenodd" opacity="0.784072581">
        <g id="设计师介入-所有项目都亮滚，不用下钻交互" transform="translate(-58, -1534)" fill="#000000">
            <path d="M97,1538 L97,1555 L114,1555 L114,1577 L97,1577 L97,1594 L75,1594 L75,1577 L58,1577 L58,1555 L75,1555 L75,1538 L97,1538 Z M449,1542.89362 L477,1542.89362 L477,1572 L449,1572 Z M640,1571.89362 L650,1571.89362 L650,1581.89362 L640,1581.89362 Z M657,1554.89362 L667,1554.89362 L667,1564.89362 L657,1564.89362 Z M662,1576.89362 L672,1576.89362 L672,1586.89362 L662,1586.89362 Z M657,1598.89362 L667,1598.89362 L667,1608.89362 L657,1608.89362 Z M684,1576.89362 L694,1576.89362 L694,1586.89362 L684,1586.89362 Z M636,1598.89362 L646,1598.89362 L646,1608.89362 L636,1608.89362 Z M678,1558.89362 L688,1558.89362 L688,1568.89362 L678,1568.89362 Z M535,1534 L563,1534 L563,1563.10638 L535,1563.10638 Z M369,1595 L403.015748,1595 L403.015748,1602 L369,1602 Z M414.984252,1595 L449,1595 L449,1602 L414.984252,1602 Z" id="形状结合"></path>
        </g>
    </g>
</svg>