<?xml version="1.0" encoding="UTF-8"?>
<svg width="757px" height="95px" viewBox="0 0 757 95" version="1.1" xmlns="http://www.w3.org/2000/svg" xmlns:xlink="http://www.w3.org/1999/xlink">
    <title>编组</title>
    <defs>
        <linearGradient x1="44.4343028%" y1="0.958795939%" x2="58.5221517%" y2="101.872266%" id="linearGradient-1">
            <stop stop-color="#FFFFFF" offset="0%"></stop>
            <stop stop-color="#FEFEFE" offset="57.9652382%"></stop>
            <stop stop-color="#E0E0E0" offset="100%"></stop>
        </linearGradient>
    </defs>
    <g id="页面-1" stroke="none" stroke-width="1" fill="none" fill-rule="evenodd" opacity="0.298210685">
        <g id="优先级靠后做" transform="translate(5, -1541)" fill="#FFFFFF">
            <g id="编组" transform="translate(-5, 1541)">
                <g transform="translate(0, 23)">
                    <g>
                        <g>
                            <rect id="矩形-6" x="46" y="26" width="23" height="23"></rect>
                            <rect id="矩形-6备份" x="69" y="0" width="23" height="23"></rect>
                            <rect id="矩形-6备份-3" x="0" y="26" width="23" height="23"></rect>
                            <rect id="矩形-6备份-2" x="23" y="0" width="23" height="23"></rect>
                        </g>
                        <g id="编组备份-2" transform="translate(92, 0)">
                            <rect id="矩形-6" x="46" y="26" width="23" height="23"></rect>
                            <rect id="矩形-6备份" x="69" y="0" width="23" height="23"></rect>
                            <rect id="矩形-6备份-3" x="0" y="26" width="23" height="23"></rect>
                            <rect id="矩形-6备份-2" x="23" y="0" width="23" height="23"></rect>
                        </g>
                    </g>
                    <g id="编组备份-3" transform="translate(61, 0)">
                        <g id="编组">
                            <rect id="矩形-6" x="169" y="24.5" width="23" height="23"></rect>
                            <rect id="矩形-6备份" x="192" y="0" width="23" height="23"></rect>
                            <rect id="矩形-6备份-3" x="123" y="24.5" width="23" height="23"></rect>
                            <rect id="矩形-6备份-4" x="142" y="49" width="31" height="23"></rect>
                            <rect id="矩形-6备份-7" x="238" y="49" width="31" height="23"></rect>
                            <rect id="矩形-6备份-8" x="353" y="49" width="62" height="23"></rect>
                            <rect id="矩形-6备份-9" x="481" y="49" width="62" height="23"></rect>
                            <rect id="矩形-6备份-10" x="609" y="49" width="62" height="23"></rect>
                            <rect id="矩形-6备份-5" x="92" y="49" width="31" height="23"></rect>
                            <rect id="矩形-6备份-6" x="0" y="49" width="31" height="23"></rect>
                            <rect id="矩形-6备份-2" x="146" y="0" width="23" height="23"></rect>
                        </g>
                        <g id="编组备份-2" transform="translate(215, 0)">
                            <rect id="矩形-6" x="46" y="26" width="23" height="23"></rect>
                            <rect id="矩形-6备份" x="69" y="0" width="23" height="23"></rect>
                            <rect id="矩形-6备份-3" x="0" y="26" width="23" height="23"></rect>
                            <rect id="矩形-6备份-2" x="23" y="0" width="23" height="23"></rect>
                        </g>
                    </g>
                </g>
                <g id="编组备份-9" transform="translate(46, 0)">
                    <g id="编组">
                        <g id="矩形-6">
                            <rect x="0" y="0" width="23" height="23"></rect>
                        </g>
                        <g id="编组备份-2" transform="translate(46, 0)">
                            <rect id="矩形-6备份-3" x="0" y="0" width="23" height="23"></rect>
                        </g>
                    </g>
                    <g id="编组备份-3" transform="translate(138, 0)">
                        <g id="编组">
                            <rect id="矩形-6" x="46" y="0" width="23" height="23"></rect>
                            <rect id="矩形-6备份-3" x="0" y="0" width="23" height="23"></rect>
                        </g>
                        <g id="编组备份-2" transform="translate(138, 0)">
                            <rect id="矩形-6" x="0" y="0" width="23" height="23"></rect>
                        </g>
                    </g>
                </g>
                <g id="编组备份-4" transform="translate(391, 0)">
                    <g id="编组" transform="translate(0, 23)">
                        <g>
                            <rect id="矩形-6" x="46" y="26" width="23" height="23"></rect>
                            <rect id="矩形-6备份" x="69" y="0" width="23" height="23"></rect>
                            <rect id="矩形-6备份-3" x="0" y="26" width="23" height="23"></rect>
                            <rect id="矩形-6备份-2" x="23" y="0" width="23" height="23"></rect>
                        </g>
                        <g id="编组备份-2" transform="translate(92, 0)">
                            <rect id="矩形-6" x="46" y="26" width="23" height="23"></rect>
                            <rect id="矩形-6备份" x="69" y="0" width="23" height="23"></rect>
                            <rect id="矩形-6备份-3" x="0" y="26" width="23" height="23"></rect>
                            <rect id="矩形-6备份-2" x="23" y="0" width="23" height="23"></rect>
                        </g>
                    </g>
                    <g id="编组备份-8">
                        <g id="编组">
                            <rect id="矩形-6备份-3" x="0" y="0" width="23" height="23"></rect>
                        </g>
                        <g id="编组备份-2" transform="translate(92, 0)">
                            <rect id="矩形-6" x="46" y="0" width="23" height="23"></rect>
                            <rect id="矩形-6备份-3" x="0" y="0" width="23" height="23"></rect>
                        </g>
                    </g>
                    <g id="编组备份-3" transform="translate(184, 0)">
                        <g id="编组" transform="translate(0, 23)">
                            <rect id="矩形-6" x="46" y="26" width="23" height="23"></rect>
                            <rect id="矩形-6备份" x="69" y="0" width="23" height="23"></rect>
                            <rect id="矩形-6备份-3" x="0" y="26" width="23" height="23"></rect>
                            <rect id="矩形-6备份-2" x="23" y="0" width="23" height="23"></rect>
                        </g>
                        <g id="编组备份-2" transform="translate(92, 23)">
                            <rect id="矩形-6" x="46" y="26" width="23" height="23"></rect>
                            <rect id="矩形-6备份" x="67" y="0" width="23" height="23"></rect>
                            <rect id="矩形-6备份-3" x="0" y="26" width="23" height="23"></rect>
                            <rect id="矩形-6备份-2" x="23" y="0" width="23" height="23"></rect>
                        </g>
                        <g id="编组备份-7" transform="translate(46, 0)">
                            <rect id="矩形-6" x="0" y="0" width="23" height="23"></rect>
                        </g>
                        <g id="编组备份-5" transform="translate(92, 0)">
                            <rect id="矩形-6备份-3" x="0" y="0" width="23" height="23"></rect>
                        </g>
                    </g>
                </g>
            </g>
        </g>
    </g>
</svg>