<?xml version="1.0" encoding="UTF-8"?>
<svg width="161px" height="189px" viewBox="0 0 161 189" version="1.1" xmlns="http://www.w3.org/2000/svg" xmlns:xlink="http://www.w3.org/1999/xlink" preserveAspectRatio="none">
    <title>编组备份 5</title>
    <defs>
        <linearGradient x1="44.4343028%" y1="0.958795939%" x2="58.5221517%" y2="101.872266%" id="linearGradient-1">
            <stop stop-color="#FFFFFF" offset="0%"></stop>
            <stop stop-color="#FEFEFE" offset="57.9652382%"></stop>
            <stop stop-color="#E0E0E0" offset="100%"></stop>
        </linearGradient>
    </defs>
    <g id="页面-1" stroke="none" stroke-width="1" fill="none" fill-rule="evenodd">
        <g id="设计师介入-所有项目都亮滚，不用下钻交互" transform="translate(-227, -1268)">
            <g id="编组" transform="translate(-58, -204)">
                <g transform="translate(84, 1098)" id="编组备份-5">
                    <g transform="translate(75, 82)">
                        <g transform="translate(125.0199, 292)">
                            <g id="编组" opacity="0.383140121" transform="translate(81, 94.5) rotate(7) translate(-81, -94.5)translate(11, 8)">
                                <g fill="#000000">
                                    <rect id="矩形" x="18" y="0" width="77" height="5"></rect>
                                    <rect id="矩形备份-2" x="44" y="168" width="82" height="5"></rect>
                                    <rect id="矩形备份-3" x="18" y="168" width="17" height="5"></rect>
                                    <rect id="矩形-3" x="122" y="164" width="8" height="8"></rect>
                                    <rect id="矩形-3备份-2" x="130" y="158" width="7" height="7"></rect>
                                    <rect id="矩形-3备份-7" transform="translate(7, 162) scale(-1, 1) translate(-7, -162)" x="3" y="158" width="8" height="8"></rect>
                                    <rect id="矩形-3备份-8" transform="translate(8, 12) scale(-1, 1) translate(-8, -12)" x="4" y="8" width="8" height="8"></rect>
                                    <rect id="矩形-3备份-9" transform="translate(16, 6) scale(-1, 1) translate(-16, -6)" x="12" y="2" width="8" height="8"></rect>
                                    <rect id="矩形-3备份-11" x="129" y="9" width="8" height="8"></rect>
                                    <rect id="矩形-3备份-10" x="122" y="2" width="8" height="8"></rect>
                                    <rect id="矩形-3备份-6" transform="translate(14.5, 167.5) scale(-1, 1) translate(-14.5, -167.5)" x="11" y="164" width="7" height="7"></rect>
                                    <rect id="矩形-3备份-3" x="134" y="15.5" width="6" height="143"></rect>
                                    <rect id="矩形-3备份-4" x="0" y="15.5" width="6" height="64"></rect>
                                    <rect id="矩形-3备份-5" x="0" y="87.5" width="6" height="71"></rect>
                                    <rect id="矩形备份" x="104" y="0" width="22" height="5"></rect>
                                </g>
                                <polygon id="路径" fill="#FFFFFF" points="19.3409276 5.07151713 95.3187319 5.07151713 95.3187319 6.66980967 104.07136 6.66980967 104.07136 5.07151713 122.280423 5.07151713 122.280423 9.58967774 129.183621 9.58967774 129.183621 16.089039 133.927341 16.089039 133.927341 157.653101 130.302372 157.653101 130.302372 163.848145 129.183621 163.848145 122.280423 163.848145 122.280423 167.742352 44.358734 167.742352 44.358734 166.17653 35.1679055 166.17653 35.1679055 169.002021 18.6344314 169.002021 18.6344314 163.848145 10.9925205 163.848145 10.9925205 157.653101 5.61826489 157.653101 5.61826489 88.5329304 7.09227803 88.5329304 7.09227803 79.1375022 5.61826489 79.1375022 5.61826489 16.089039 11.6877412 16.089039 11.6877412 9.73628234 19.3409276 9.73628234"></polygon>
                            </g>
                            <g id="编组" transform="translate(21, 8)">
                                <g fill="#000000">
                                    <rect id="矩形" x="18" y="0" width="77" height="5"></rect>
                                    <rect id="矩形备份-2" x="44" y="168" width="82" height="5"></rect>
                                    <rect id="矩形备份-3" x="18" y="168" width="17" height="5"></rect>
                                    <rect id="矩形-3" x="122" y="164" width="8" height="8"></rect>
                                    <rect id="矩形-3备份-2" x="130" y="158" width="7" height="7"></rect>
                                    <rect id="矩形-3备份-7" transform="translate(7, 162) scale(-1, 1) translate(-7, -162)" x="3" y="158" width="8" height="8"></rect>
                                    <rect id="矩形-3备份-8" transform="translate(8, 12) scale(-1, 1) translate(-8, -12)" x="4" y="8" width="8" height="8"></rect>
                                    <rect id="矩形-3备份-9" transform="translate(16, 6) scale(-1, 1) translate(-16, -6)" x="12" y="2" width="8" height="8"></rect>
                                    <rect id="矩形-3备份-11" x="129" y="9" width="8" height="8"></rect>
                                    <rect id="矩形-3备份-10" x="122" y="2" width="8" height="8"></rect>
                                    <rect id="矩形-3备份-6" transform="translate(14.5, 167.5) scale(-1, 1) translate(-14.5, -167.5)" x="11" y="164" width="7" height="7"></rect>
                                    <rect id="矩形-3备份-3" x="134" y="15.5" width="6" height="143"></rect>
                                    <rect id="矩形-3备份-4" x="0" y="15.5" width="6" height="64"></rect>
                                    <rect id="矩形-3备份-5" x="0" y="87.5" width="6" height="71"></rect>
                                    <rect id="矩形备份" x="104" y="0" width="22" height="5"></rect>
                                </g>
                                <polygon id="路径" fill="#FFFFFF" points="19.3409276 5.07151713 95.3187319 5.07151713 95.3187319 6.66980967 104.07136 6.66980967 104.07136 5.07151713 122.280423 5.07151713 122.280423 9.58967774 129.183621 9.58967774 129.183621 16.089039 133.927341 16.089039 133.927341 157.653101 130.302372 157.653101 130.302372 163.848145 129.183621 163.848145 122.280423 163.848145 122.280423 167.742352 44.358734 167.742352 44.358734 166.17653 35.1679055 166.17653 35.1679055 169.002021 18.6344314 169.002021 18.6344314 163.848145 10.9925205 163.848145 10.9925205 157.653101 5.61826489 157.653101 5.61826489 88.5329304 7.09227803 88.5329304 7.09227803 79.1375022 5.61826489 79.1375022 5.61826489 16.089039 11.6877412 16.089039 11.6877412 9.73628234 19.3409276 9.73628234"></polygon>
                            </g>
                        </g>
                    </g>
                </g>
            </g>
        </g>
    </g>
</svg>