<?xml version="1.0" encoding="UTF-8"?>
<svg width="70px" height="59px" viewBox="0 0 70 59" version="1.1" xmlns="http://www.w3.org/2000/svg" xmlns:xlink="http://www.w3.org/1999/xlink">
    <title>编组备份 4</title>
    <defs>
        <linearGradient x1="44.4343028%" y1="0.958795939%" x2="58.5221517%" y2="101.872266%" id="linearGradient-1">
            <stop stop-color="#FFFFFF" offset="0%"></stop>
            <stop stop-color="#FEFEFE" offset="57.9652382%"></stop>
            <stop stop-color="#E0E0E0" offset="100%"></stop>
        </linearGradient>
    </defs>
    <g id="页面-1" stroke="none" stroke-width="1" fill="none" fill-rule="evenodd">
        <g id="默认这一页" transform="translate(-547, -920)" stroke="#000000">
            <g id="编组备份-4" transform="translate(550, 923)">
                <polygon id="路径" stroke-width="4.15111088" fill="#000000" points="42.669958 12.2333503 42.669958 5.53481451 56.5978661 5.53481451 56.5978661 13.623108 64 13.623108 64 30.9919931 56.5978661 30.9919931 56.5978661 38.7553013 49.4075766 38.7553013 49.4075766 45.2042704 41.5645027 45.2042704 41.5645027 53 29.3985279 53 29.3985279 45.2042704 21.555454 45.2042704 21.555454 38.7553013 14.3651645 38.7553013 14.3651645 30.9919931 6.96303066 30.9919931 6.96303066 13.623108 14.3651645 13.623108 14.3651645 5.53481451 28.2930727 5.53481451 28.2930727 12.2333503"></polygon>
                <polygon id="路径备份-2" stroke-width="4.15111088" fill="#E64746" points="35.7069273 6.69853583 35.7069273 0 49.6348355 0 49.6348355 8.08829346 57.0369693 8.08829346 57.0369693 25.4571786 49.6348355 25.4571786 49.6348355 33.2204868 42.444546 33.2204868 42.444546 39.6694559 34.6014721 39.6694559 34.6014721 47.4651855 22.4354973 47.4651855 22.4354973 39.6694559 14.5924234 39.6694559 14.5924234 33.2204868 7.40213389 33.2204868 7.40213389 25.4571786 0 25.4571786 0 8.08829346 7.40213389 8.08829346 7.40213389 0 21.330042 0 21.330042 6.69853583"></polygon>
            </g>
        </g>
    </g>
</svg>